<svg id="icons" enable-background="new 0 0 64 64" height="512" viewBox="0 0 64 64" width="512" xmlns="http://www.w3.org/2000/svg"><path d="m60 35.995v4.01h-4.01v-4.01h.01z" fill="#fff"/><path d="m60 40.005v12h-56v-12h13.99v6h38v-6z" fill="#d7e9ff"/><path d="m14.99 34.005v1.99h-10.99v-5.99h6.99v-.01c2.21 0 4 1.79 4 4.01z" fill="#fff"/><path d="m17.99 35.995v4.01h-13.99v-4.01h10.99z" fill="#fff"/><path d="m55.99 40.005v6h-38v-6-4.01-1h3.01v8h32v-8h2.99v1z" fill="#94c1ff"/><path d="m21 34.995h32v8h-32z" fill="#5c9eff"/><path d="m35 6.005c5.53 0 10 4.47 10 10 0 5.521-4.47 10-10 10-5.52 0-10-4.479-10-10 0-5.53 4.48-10 10-10z" fill="#94c1ff"/><path d="m63 31.005v26.99h-3v-5.99-12-4.01-4.99z" fill="#d7e9ff"/><path d="m4 30.005v5.99 4.01 12 5.99h-3v-41.01h3z" fill="#d7e9ff"/><g fill="#116fff"><path d="m17.988 41.006h-13.986c-.553 0-1-.447-1-1s.447-1 1-1h13.986c.553 0 1 .447 1 1s-.447 1-1 1z"/><path d="m59.996 53.002h-55.994c-.553 0-1-.447-1-1s.447-1 1-1h55.994c.553 0 1 .447 1 1s-.447 1-1 1z"/><path d="m4 58.998h-3c-.553 0-1-.447-1-1v-41.008c0-.553.447-1 1-1h3c.553 0 1 .447 1 1v41.008c0 .553-.447 1-1 1zm-2-2h1v-39.008h-1z"/><path d="m63 58.998h-3c-.553 0-1-.447-1-1v-26.994c0-.553.447-1 1-1h3c.553 0 1 .447 1 1v26.994c0 .553-.447 1-1 1zm-2-2h1v-24.994h-1z"/><path d="m14.994 35.004c-.553 0-1-.447-1-1 0-1.657-1.349-3.006-3.006-3.006-.553 0-1-.447-1-1s.447-1 1-1c2.76 0 5.006 2.246 5.006 5.006 0 .553-.447 1-1 1z"/><path d="m17.988 37h-13.984c-.553 0-1-.447-1-1s.447-1 1-1h13.984c.553 0 1 .447 1 1s-.447 1-1 1z"/><path d="m10.988 31.002h-6.994c-.553 0-1-.447-1-1s.447-1 1-1h6.994c.553 0 1 .447 1 1s-.447 1-1 1z"/><path d="m14.994 37c-.553 0-1-.447-1-1v-1.996c0-.553.447-1 1-1s1 .447 1 1v1.996c0 .553-.447 1-1 1z"/><path d="m17.988 47.002c-.553 0-1-.447-1-1v-11.002c0-.553.447-1 1-1s1 .447 1 1v11.002c0 .553-.447 1-1 1z"/><path d="m55.992 47.002c-.553 0-1-.447-1-1v-11.002c0-.553.447-1 1-1s1 .447 1 1v11.002c0 .553-.447 1-1 1z"/><path d="m55.992 36h-38.004c-.553 0-1-.447-1-1s.447-1 1-1h38.004c.553 0 1 .447 1 1s-.447 1-1 1z"/><path d="m59.996 41.006h-4.004c-.553 0-1-.447-1-1s.447-1 1-1h4.004c.553 0 1 .447 1 1s-.447 1-1 1z"/><path d="m55.992 47.002h-38.004c-.553 0-1-.447-1-1s.447-1 1-1h38.004c.553 0 1 .447 1 1s-.447 1-1 1z"/><path d="m60 37h-4c-.553 0-1-.447-1-1s.447-1 1-1h4c.553 0 1 .447 1 1s-.447 1-1 1z"/><path d="m53 44h-32c-.553 0-1-.447-1-1s.447-1 1-1h32c.553 0 1 .447 1 1s-.447 1-1 1z"/><path d="m53 44c-.553 0-1-.447-1-1v-8c0-.553.447-1 1-1s1 .447 1 1v8c0 .553-.447 1-1 1z"/><path d="m21 44c-.553 0-1-.447-1-1v-8c0-.553.447-1 1-1s1 .447 1 1v8c0 .553-.447 1-1 1z"/><path d="m35.003 27.002c-6.065 0-11-4.935-11-11s4.935-11 11-11 11 4.935 11 11-4.935 11-11 11zm0-20c-4.963 0-9 4.037-9 9s4.037 9 9 9 9-4.037 9-9-4.037-9-9-9z"/><path d="m34.998 21c-.553 0-1-.447-1-1v-8c0-.553.447-1 1-1s1 .447 1 1v8c0 .553-.447 1-1 1z"/><path d="m38.998 17h-8c-.553 0-1-.447-1-1s.447-1 1-1h8c.553 0 1 .447 1 1s-.447 1-1 1z"/></g></svg>